# xmcd CD database file
#
# Track frame offsets:
#	150
#	15447
#	25338
#	42063
#	57475
#	81005
#	91900
#
# Disc length: 1487 seconds
#
# Revision: 0
# Processed by: cddbd v1.5.1PL2 Copyright (c) Steve Scherf et al.
# Submitted via: CDex 1.51
#
DISCID=4705cd07
DTITLE=The Bootleg Remedy - The Bootleg Remedy
DYEAR=2000
DGENRE=Jazz
TTITLE0=Davo's Rag
TTITLE1=Old Salty Dog Blues
TTITLE2=Lady Doc
TTITLE3=Bootleg Swing
TTITLE4=Sacramento
TTITLE5=Snake Juice
TTITLE6=Blue Moon of Kentucky
EXTD=YEAR: 2000
EXTT0=
EXTT1=
EXTT2=
EXTT3=
EXTT4=
EXTT5=
EXTT6=
PLAYORDER=
